<?xml version="1.0" standalone="no"?>
<!DOCTYPE svg PUBLIC "-//W3C//DTD SVG 20010904//EN"
 "http://www.w3.org/TR/2001/REC-SVG-20010904/DTD/svg10.dtd">
<svg version="1.0" xmlns="http://www.w3.org/2000/svg"
 width="512.000000pt" height="512.000000pt" viewBox="0 0 512.000000 512.000000"
 preserveAspectRatio="xMidYMid meet">
<metadata>
Created by potrace 1.14, written by Peter Selinger 2001-2017
</metadata>
<g transform="translate(0.000000,512.000000) scale(0.100000,-0.100000)"
fill="#000000" stroke="none">
<path d="M971 5105 c-192 -42 -350 -132 -481 -272 -71 -76 -81 -89 -131 -168
-34 -55 -40 -71 -35 -99 4 -19 13 -39 20 -45 11 -9 6 -28 -24 -103 -30 -76
-40 -92 -61 -95 -31 -5 -58 -32 -64 -64 -28 -158 -33 -323 -14 -426 5 -26 12
-61 14 -78 3 -16 17 -66 30 -110 14 -44 25 -84 25 -89 1 -6 -19 -15 -44 -21
-126 -32 -215 -161 -203 -291 10 -104 69 -188 164 -231 77 -36 155 -34 360 9
l103 21 32 -25 c205 -155 453 -269 683 -313 22 -5 47 -9 55 -11 160 -31 412
-20 598 27 42 11 85 21 94 24 40 9 208 80 268 113 65 35 201 123 252 164 l27
22 83 -18 c46 -10 94 -20 108 -22 97 -15 159 -21 185 -17 121 17 209 91 241
202 43 147 -43 303 -192 347 l-51 15 28 82 c44 130 58 232 54 402 -2 90 -9
180 -19 224 -65 297 -234 560 -454 710 -162 109 -310 152 -511 146 -160 -4
-297 -47 -410 -128 -67 -48 -68 -48 -83 -34 -46 45 -182 112 -293 144 -71 20
-275 25 -354 8z m273 -579 c86 -50 123 -138 102 -242 -6 -28 -45 -111 -75
-159 -63 -99 -186 -218 -326 -316 -55 -38 -146 -91 -151 -87 -1 2 -15 39 -30
83 -24 69 -28 97 -28 195 -1 79 4 134 16 176 18 67 65 171 85 192 7 7 13 16
13 20 0 8 55 68 91 100 80 71 218 88 303 38z m1017 2 c110 -51 204 -177 254
-338 36 -120 25 -313 -24 -425 l-21 -46 -32 18 c-18 10 -34 21 -36 26 -2 4 -8
7 -13 7 -9 0 -123 79 -169 117 -118 96 -212 208 -258 305 -51 109 -57 172 -20
244 56 112 191 151 319 92z m-441 -1039 c36 -31 100 -81 142 -112 58 -41 73
-56 60 -60 -9 -3 -43 -15 -76 -27 -126 -46 -284 -63 -426 -45 -70 8 -202 43
-246 64 l-34 17 107 81 c60 44 149 121 198 171 l90 91 60 -62 c33 -34 89 -87
125 -118z"/>
<path d="M3405 2973 c-237 -49 -441 -198 -556 -406 -19 -34 -40 -80 -47 -102
l-14 -40 -80 1 c-385 4 -713 -270 -809 -676 -23 -95 -32 -283 -18 -371 5 -30
11 -69 14 -88 44 -278 219 -565 452 -743 45 -34 51 -43 42 -59 -5 -10 -14 -19
-19 -19 -5 0 -23 -29 -40 -64 -70 -141 -22 -290 119 -374 38 -22 57 -26 125
-26 117 -1 156 22 341 204 74 72 83 78 115 74 49 -5 246 -5 273 0 12 3 46 8
76 11 73 8 188 32 269 57 66 20 228 85 247 99 6 4 33 19 60 34 185 102 384
291 523 497 49 72 127 229 162 326 l31 87 77 29 c115 43 236 104 280 142 53
45 84 113 88 192 4 88 -18 145 -80 208 -79 79 -186 104 -286 69 -24 -8 -44
-14 -45 -13 -1 2 -14 46 -29 98 -76 268 -258 516 -497 676 -93 62 -233 134
-262 134 -7 0 -17 3 -21 7 -8 8 -5 7 -121 33 -107 23 -264 25 -370 3z m279
-558 c229 -60 445 -300 468 -520 l3 -30 -151 -1 c-158 -2 -188 -9 -199 -45 -6
-19 -12 -20 -53 -14 -57 9 -57 9 -109 23 -33 10 -40 16 -36 31 9 34 -16 60
-90 95 -135 65 -200 143 -200 241 0 98 63 181 165 216 65 23 126 24 202 4z
m-879 -577 c81 -43 116 -122 122 -273 5 -116 -7 -200 -45 -330 -19 -65 -104
-270 -116 -283 -22 -22 -176 121 -232 214 -49 85 -70 140 -87 230 -45 239 45
433 216 463 49 8 100 1 142 -21z m752 -492 c88 -19 117 -24 167 -30 104 -14
139 -16 210 -17 86 -1 86 2 19 -85 -130 -172 -371 -320 -567 -349 l-46 -7 21
48 c54 127 116 351 118 432 1 12 3 22 5 22 3 0 36 -6 73 -14z"/>
</g>
</svg>
