<?xml version="1.0" encoding="UTF-8"?>
<svg xmlns="http://www.w3.org/2000/svg" xmlns:xlink="http://www.w3.org/1999/xlink" width="15px" height="15px" viewBox="0 0 15 15" version="1.1">
<g id="surface1">
<path style=" stroke:none;fill-rule:nonzero;fill:rgb(0%,0%,0%);fill-opacity:1;" d="M 1.40625 1.875 C 0.628906 1.875 0 2.503906 0 3.28125 C 0 3.722656 0.207031 4.140625 0.5625 4.40625 L 6.9375 9.1875 C 7.273438 9.4375 7.726562 9.4375 8.0625 9.1875 L 14.4375 4.40625 C 14.792969 4.140625 15 3.722656 15 3.28125 C 15 2.503906 14.371094 1.875 13.59375 1.875 Z M 0 5.15625 L 0 11.25 C 0 12.285156 0.839844 13.125 1.875 13.125 L 13.125 13.125 C 14.160156 13.125 15 12.285156 15 11.25 L 15 5.15625 L 8.625 9.9375 C 7.957031 10.4375 7.042969 10.4375 6.375 9.9375 Z M 0 5.15625 "/>
</g>
</svg>
