<?xml version="1.0" encoding="UTF-8"?>
<svg xmlns="http://www.w3.org/2000/svg" xmlns:xlink="http://www.w3.org/1999/xlink" width="8px" height="8px" viewBox="0 0 8 8" version="1.1">
<g id="surface1">
<path style=" stroke:none;fill-rule:nonzero;fill:rgb(0%,0%,0%);fill-opacity:1;" d="M 2.675781 6.210938 C 2.675781 6.242188 2.640625 6.265625 2.59375 6.265625 C 2.539062 6.269531 2.5 6.246094 2.5 6.210938 C 2.5 6.179688 2.539062 6.152344 2.585938 6.152344 C 2.632812 6.148438 2.675781 6.171875 2.675781 6.210938 Z M 2.175781 6.140625 C 2.164062 6.171875 2.195312 6.207031 2.242188 6.214844 C 2.285156 6.230469 2.332031 6.214844 2.34375 6.183594 C 2.351562 6.152344 2.324219 6.117188 2.273438 6.101562 C 2.230469 6.09375 2.183594 6.109375 2.175781 6.140625 Z M 2.886719 6.113281 C 2.839844 6.125 2.808594 6.152344 2.8125 6.1875 C 2.816406 6.21875 2.859375 6.242188 2.90625 6.230469 C 2.953125 6.21875 2.988281 6.1875 2.980469 6.15625 C 2.976562 6.128906 2.933594 6.109375 2.886719 6.113281 Z M 3.949219 0.125 C 1.710938 0.125 0 1.769531 0 3.9375 C 0 5.671875 1.125 7.152344 2.734375 7.675781 C 2.941406 7.710938 3.011719 7.585938 3.011719 7.484375 C 3.011719 7.390625 3.007812 6.855469 3.007812 6.527344 C 3.007812 6.527344 1.878906 6.761719 1.640625 6.0625 C 1.640625 6.0625 1.457031 5.605469 1.195312 5.488281 C 1.195312 5.488281 0.824219 5.242188 1.21875 5.25 C 1.21875 5.25 1.621094 5.28125 1.84375 5.652344 C 2.195312 6.253906 2.785156 6.082031 3.019531 5.976562 C 3.054688 5.726562 3.160156 5.554688 3.277344 5.453125 C 2.375 5.355469 1.464844 5.226562 1.464844 3.726562 C 1.464844 3.296875 1.585938 3.078125 1.84375 2.804688 C 1.804688 2.703125 1.667969 2.285156 1.886719 1.742188 C 2.222656 1.640625 3 2.164062 3 2.164062 C 3.324219 2.078125 3.667969 2.03125 4.011719 2.03125 C 4.355469 2.03125 4.703125 2.078125 5.027344 2.164062 C 5.027344 2.164062 5.800781 1.640625 6.140625 1.742188 C 6.359375 2.285156 6.222656 2.703125 6.179688 2.804688 C 6.4375 3.082031 6.597656 3.296875 6.597656 3.726562 C 6.597656 5.234375 5.648438 5.351562 4.746094 5.453125 C 4.894531 5.574219 5.019531 5.808594 5.019531 6.175781 C 5.019531 6.703125 5.015625 7.355469 5.015625 7.484375 C 5.015625 7.585938 5.089844 7.707031 5.292969 7.671875 C 6.90625 7.152344 8 5.671875 8 3.9375 C 8 1.769531 6.183594 0.125 3.949219 0.125 Z M 1.566406 5.515625 C 1.546875 5.53125 1.550781 5.566406 1.578125 5.59375 C 1.605469 5.621094 1.640625 5.632812 1.664062 5.609375 C 1.683594 5.59375 1.679688 5.558594 1.652344 5.53125 C 1.625 5.503906 1.589844 5.492188 1.566406 5.515625 Z M 1.394531 5.386719 C 1.382812 5.40625 1.398438 5.433594 1.429688 5.449219 C 1.457031 5.464844 1.488281 5.460938 1.5 5.4375 C 1.511719 5.417969 1.496094 5.390625 1.464844 5.375 C 1.429688 5.367188 1.40625 5.371094 1.394531 5.386719 Z M 1.917969 5.945312 C 1.890625 5.964844 1.898438 6.011719 1.9375 6.039062 C 1.972656 6.078125 2.019531 6.082031 2.042969 6.054688 C 2.0625 6.035156 2.054688 5.988281 2.019531 5.960938 C 1.984375 5.921875 1.9375 5.917969 1.917969 5.945312 Z M 1.730469 5.714844 C 1.707031 5.730469 1.707031 5.769531 1.730469 5.804688 C 1.757812 5.84375 1.800781 5.859375 1.824219 5.84375 C 1.847656 5.820312 1.847656 5.78125 1.824219 5.746094 C 1.800781 5.710938 1.757812 5.695312 1.730469 5.714844 Z M 1.730469 5.714844 "/>
</g>
</svg>
