<?xml version="1.0" encoding="UTF-8"?>
<svg xmlns="http://www.w3.org/2000/svg" xmlns:xlink="http://www.w3.org/1999/xlink" width="5px" height="7px" viewBox="0 0 5 6" version="1.1">
<g id="surface1">
<path style=" stroke:none;fill-rule:nonzero;fill:rgb(0%,0%,0%);fill-opacity:1;" d="M 2.808594 5.851562 C 3.476562 5.097656 5 3.273438 5 2.25 C 5 1.007812 3.878906 0 2.5 0 C 1.121094 0 0 1.007812 0 2.25 C 0 3.273438 1.523438 5.097656 2.191406 5.851562 C 2.351562 6.03125 2.648438 6.03125 2.808594 5.851562 Z M 2.5 1.5 C 2.960938 1.5 3.332031 1.835938 3.332031 2.25 C 3.332031 2.664062 2.960938 3 2.5 3 C 2.039062 3 1.667969 2.664062 1.667969 2.25 C 1.667969 1.835938 2.039062 1.5 2.5 1.5 Z M 2.5 1.5 "/>
</g>
</svg>
